<svg xmlns="http://www.w3.org/2000/svg" viewBox="0 0 800 400" fill="none">
  <rect width="800" height="400" fill="#0a1628"/>
  <circle cx="400" cy="160" r="100" stroke="#2196F3" stroke-width="0.5" fill="none" opacity="0.2"/>
  <circle cx="400" cy="160" r="70" stroke="#2196F3" stroke-width="0.5" fill="none" opacity="0.3"/>
  <circle cx="400" cy="160" r="40" stroke="#2196F3" stroke-width="1" fill="#2196F3" fill-opacity="0.05"/>
  <circle cx="320" cy="100" r="20" fill="#0F3D5E" stroke="#2196F3" stroke-width="1" opacity="0.6"/>
  <circle cx="480" cy="100" r="20" fill="#0F3D5E" stroke="#2196F3" stroke-width="1" opacity="0.6"/>
  <circle cx="340" cy="230" r="20" fill="#0F3D5E" stroke="#2196F3" stroke-width="1" opacity="0.6"/>
  <circle cx="460" cy="230" r="20" fill="#0F3D5E" stroke="#2196F3" stroke-width="1" opacity="0.6"/>
  <path d="M320 100 L400 160 L480 100" stroke="#2196F3" stroke-width="0.8" opacity="0.3" fill="none"/>
  <path d="M340 230 L400 160 L460 230" stroke="#2196F3" stroke-width="0.8" opacity="0.3" fill="none"/>
  <rect x="100" y="280" width="200" height="60" rx="4" fill="#0F3D5E" opacity="0.3"/>
  <rect x="120" y="295" width="120" height="8" rx="2" fill="rgba(255,255,255,0.1)"/>
  <rect x="120" y="313" width="80" height="8" rx="2" fill="rgba(255,255,255,0.06)"/>
  <rect x="500" y="280" width="200" height="60" rx="4" fill="#0F3D5E" opacity="0.3"/>
  <rect x="520" y="295" width="120" height="8" rx="2" fill="rgba(255,255,255,0.1)"/>
  <rect x="520" y="313" width="80" height="8" rx="2" fill="rgba(255,255,255,0.06)"/>
  <text x="400" y="375" font-family="Inter, sans-serif" font-size="16" fill="rgba(255,255,255,0.2)" text-anchor="middle">Strategic Consulting</text>
</svg>
