<svg xmlns="http://www.w3.org/2000/svg" viewBox="0 0 800 400" fill="none">
  <rect width="800" height="400" fill="#0a1628"/>
  <path d="M50 300 Q200 280 400 250 Q600 220 750 300" stroke="#2196F3" stroke-width="1" stroke-dasharray="6 4" opacity="0.3"/>
  <path d="M100 250 Q300 200 500 220 Q700 240 750 200" stroke="#2196F3" stroke-width="1" stroke-dasharray="6 4" opacity="0.2"/>
  <rect x="100" y="100" width="180" height="120" rx="6" fill="#0F3D5E" opacity="0.35" stroke="#2196F3" stroke-width="0.5"/>
  <rect x="120" y="130" width="60" height="40" rx="2" fill="#2196F3" opacity="0.15"/>
  <rect x="190" y="130" width="60" height="40" rx="2" fill="#2196F3" opacity="0.1"/>
  <rect x="120" y="180" width="140" height="8" rx="2" fill="rgba(255,255,255,0.08)"/>
  <circle cx="400" cy="160" r="50" stroke="#2196F3" stroke-width="1.5" fill="#2196F3" fill-opacity="0.05"/>
  <circle cx="400" cy="160" r="30" stroke="#2196F3" stroke-width="1" fill="none" opacity="0.5"/>
  <circle cx="400" cy="160" r="8" fill="#2196F3" opacity="0.6"/>
  <path d="M280 160 L350 160" stroke="#2196F3" stroke-width="1" opacity="0.4"/>
  <path d="M450 160 L520 160" stroke="#2196F3" stroke-width="1" opacity="0.4"/>
  <rect x="520" y="100" width="180" height="120" rx="6" fill="#0F3D5E" opacity="0.35" stroke="#2196F3" stroke-width="0.5"/>
  <rect x="540" y="130" width="140" height="8" rx="2" fill="rgba(255,255,255,0.08)"/>
  <rect x="540" y="148" width="100" height="8" rx="2" fill="rgba(255,255,255,0.06)"/>
  <rect x="540" y="170" width="60" height="25" rx="3" fill="#2196F3" opacity="0.2"/>
  <text x="400" y="370" font-family="Inter, sans-serif" font-size="16" fill="rgba(255,255,255,0.2)" text-anchor="middle">Logistics Services</text>
</svg>
