<svg xmlns="http://www.w3.org/2000/svg" viewBox="0 0 800 400" fill="none">
  <rect width="800" height="400" fill="#0a1628"/>
  <rect x="80" y="60" width="260" height="180" rx="6" fill="#0F3D5E" opacity="0.4" stroke="#2196F3" stroke-width="1"/>
  <rect x="100" y="80" width="220" height="30" rx="3" fill="#2196F3" opacity="0.15"/>
  <rect x="100" y="120" width="180" height="10" rx="2" fill="rgba(255,255,255,0.1)"/>
  <rect x="100" y="140" width="200" height="10" rx="2" fill="rgba(255,255,255,0.1)"/>
  <rect x="100" y="160" width="160" height="10" rx="2" fill="rgba(255,255,255,0.1)"/>
  <circle cx="130" cy="210" r="15" fill="#2196F3" opacity="0.3"/>
  <circle cx="170" cy="210" r="15" fill="#2196F3" opacity="0.2"/>
  <circle cx="210" cy="210" r="15" fill="#2196F3" opacity="0.3"/>
  <rect x="420" y="80" width="300" height="220" rx="6" fill="#0F3D5E" opacity="0.25"/>
  <path d="M470 180 L520 140 L570 160 L620 120 L670 150" stroke="#2196F3" stroke-width="2" fill="none"/>
  <circle cx="520" cy="140" r="4" fill="#2196F3"/>
  <circle cx="570" cy="160" r="4" fill="#2196F3"/>
  <circle cx="620" cy="120" r="4" fill="#2196F3"/>
  <circle cx="670" cy="150" r="4" fill="#2196F3"/>
  <rect x="470" y="220" width="50" height="60" rx="2" fill="#2196F3" opacity="0.2"/>
  <rect x="530" y="200" width="50" height="80" rx="2" fill="#2196F3" opacity="0.25"/>
  <rect x="590" y="240" width="50" height="40" rx="2" fill="#2196F3" opacity="0.15"/>
  <text x="400" y="370" font-family="Inter, sans-serif" font-size="16" fill="rgba(255,255,255,0.2)" text-anchor="middle">Equipment Procurement</text>
</svg>
